<?xml version="1.0"?>
<svg version="1.1" xmlns="http://www.w3.org/2000/svg" width="200" height="40" style=""><path fill="#ff0048" d="M15.93017578125,14.32373046875q-0.03662109375-0.44677734375,0.05859375-0.7763671875t0.380859375-0.5419921875t0.91552734375-0.21240234375l2.3583984375,0q0.4833984375,0,1.26708984375,0.05126953125t1.6845703125,0.15380859375t1.79443359375,0.31494140625t1.63330078125,0.52734375t1.201171875,0.7763671875t0.46142578125,1.09130859375q0,0.8935546875-0.52001953125,1.67724609375t-1.3037109375,1.41357421875t-1.6552734375,1.12060546875t-1.56005859375,0.88623046875q2.724609375,0.6005859375,4.2626953125,2.490234375t1.5380859375,4.716796875q0,1.494140625-0.5712890625,2.95166015625t-1.56005859375,2.62939453125t-2.34375,1.8896484375t-2.90771484375,0.7177734375q-0.205078125,0-0.46142578125-0.0439453125t-0.46875-0.13916015625t-0.3662109375-0.27099609375t-0.15380859375-0.4541015625q0-1.2890625,1.3916015625-1.2890625q0.234375,0,0.54931640625,0.06591796875t0.49072265625,0.27099609375q0.8056640625-0.3369140625,1.47216796875-1.0693359375t1.1279296875-1.63330078125t0.7177734375-1.8896484375t0.25634765625-1.79443359375q0-0.966796875-0.28564453125-1.97021484375t-0.82763671875-1.8603515625t-1.3330078125-1.44287109375t-1.81640625-0.732421875q-0.263671875-0.029296875-0.57861328125-0.0439453125l-0.6298828125-0.029296875t-0.615234375-0.087890625t-0.52001953125-0.234375q0.1171875,2.431640625,0.30029296875,4.8486328125t0.49072265625,4.8486328125q0.1171875,0.1171875,0.1611328125,0.34423828125t0.0732421875,0.4833984375t0.029296875,0.49072265625l0,0.3955078125q0,0.263671875-0.17578125,0.43212890625t-0.41748046875,0.27099609375t-0.5126953125,0.1318359375t-0.47607421875,0.029296875q-0.6591796875,0-1.0107421875-0.17578125t-0.498046875-0.5126953125t-0.1904296875-0.76904296875t-0.0732421875-0.94482421875q-0.3955078125-4.0869140625-0.5712890625-8.0859375t-0.17578125-8.0859375q0-0.4833984375-0.03662109375-0.93017578125z M18.6328125,13.701171875q0,1.8017578125,0.1171875,3.61083984375t0.205078125,3.61083984375q0.6591796875-0.3955078125,1.728515625-0.93017578125t2.07275390625-1.17919921875t1.72119140625-1.4208984375t0.7177734375-1.6845703125q0-0.7177734375-0.849609375-1.09130859375t-1.9775390625-0.556640625t-2.20458984375-0.22705078125t-1.53076171875-0.1318359375z M31.430712890625,30.13671875q0-1.025390625,0.22705078125-2.4169921875t0.76904296875-2.63671875t1.42822265625-2.11669921875t2.23388671875-0.87158203125q1.259765625,0,1.8896484375,0.72509765625t0.6298828125,1.95556640625q0,0.8056640625-0.30029296875,1.76513671875t-0.85693359375,1.81640625t-1.318359375,1.42822265625t-1.69921875,0.5712890625l-0.380859375-0.029296875q0,0.3955078125,0.1171875,1.06201171875t0.34423828125,1.32568359375t0.5859375,1.1572265625t0.87158203125,0.498046875q0.7470703125,0,1.435546875-0.6005859375t1.3037109375-1.3330078125t1.142578125-1.3330078125t0.966796875-0.6005859375q0.234375,0,0.4833984375,0.0732421875t0.2783203125,0.41015625q0,0.205078125-0.10986328125,0.3369140625t-0.19775390625,0.29296875q-0.4541015625,0.7763671875-0.98876953125,1.4794921875t-1.20849609375,1.2744140625t-1.47216796875,0.90087890625t-1.76513671875,0.32958984375q-1.259765625,0-2.0947265625-0.44677734375t-1.34765625-1.201171875t-0.73974609375-1.7431640625t-0.22705078125-2.07275390625z M34.052783203125,29.0234375l0.41015625,0.3662109375q0.29296875,0.263671875,0.5859375,0.1171875t0.52734375-0.53466796875t0.43212890625-0.95947265625t0.3515625-1.171875t0.22705078125-1.171875t0.0732421875-0.9521484375l0-0.498046875t-0.0439453125-0.52734375t-0.15380859375-0.41748046875t-0.34423828125-0.21240234375q-0.0732421875-0.0146484375-0.1318359375-0.0146484375q-0.498046875,0-0.849609375,0.6298828125q-0.380859375,0.703125-0.615234375,1.70654296875t-0.3369140625,2.05810546875t-0.1318359375,1.58203125z M43.67197265625,25.7568359375q0-0.6005859375,0.3515625-1.03271484375t0.85693359375-0.703125t1.10595703125-0.40283203125t1.11328125-0.1318359375q0.3955078125,0,1.0546875,0.1171875t1.2890625,0.3515625t1.09130859375,0.615234375t0.46142578125,0.8935546875q0,0.234375-0.17578125,0.41748046875t-0.3662109375,0.18310546875q-0.3955078125,0-0.7177734375-0.25634765625t-0.66650390625-0.5419921875t-0.75439453125-0.5419921875t-0.9228515625-0.25634765625t-0.93017578125,0.32958984375t-0.41748046875,0.87158203125q0,0.8935546875,0.6298828125,1.75048828125t1.38427734375,1.8017578125t1.38427734375,1.98486328125t0.6298828125,2.2998046875q0,0.5419921875-0.22705078125,0.91552734375t-0.6005859375,0.60791015625t-0.84228515625,0.35888671875t-0.908203125,0.12451171875q-0.4833984375,0-1.1279296875-0.22705078125t-1.2158203125-0.6005859375t-0.95947265625-0.87158203125t-0.38818359375-1.0400390625q0-0.263671875,0.37353515625-0.3369140625t0.54931640625-0.0732421875q0.087890625,0,0.27099609375,0.05859375t0.35888671875,0.1318359375t0.31494140625,0.1611328125t0.10986328125,0.1904296875q0.146484375,0.17578125,0.44677734375,0.52001953125t0.6005859375,0.556640625t0.52734375,0.15380859375t0.22705078125-0.6591796875q0-1.142578125-0.615234375-2.10205078125t-1.34033203125-1.875t-1.34033203125-1.81640625t-0.615234375-1.92626953125z M53.393701171875,20.234375q0-0.205078125,0.439453125-0.3515625t0.99609375-0.24169921875t1.07666015625-0.13916015625t0.71044921875-0.0732421875q0-0.3955078125,0.029296875-0.79833984375t0.1611328125-0.7177734375t0.41748046875-0.50537109375t0.79833984375-0.1904296875q0.4248046875,0,0.64453125,0.1025390625t0.46875,0.4248046875q0.05859375,0.17578125,0.05859375,0.3369140625l0,0.49072265625t-0.029296875,0.50537109375q0.5419921875-0.05859375,1.07666015625-0.13916015625t1.07666015625-0.08056640625q0.3955078125,0,0.5419921875,0.0146484375t0.29296875,0.3515625q0.1171875,0.3369140625-0.28564453125,0.5126953125t-0.966796875,0.263671875t-1.12060546875,0.1318359375t-0.673828125,0.0439453125q-0.17578125,2.51953125-0.35888671875,4.9951171875t-0.18310546875,5.0244140625q0,1.142578125,0.0732421875,2.3583984375t0.41015625,2.2998046875q0.087890625,0.3369140625,0.29296875,0.6298828125t0.205078125,0.6298828125q0,0.205078125-0.1611328125,0.322265625t-0.38818359375,0.19775390625t-0.4541015625,0.09521484375t-0.37353515625,0.0146484375q-0.9228515625,0-1.40625-0.6884765625t-0.69580078125-1.64794921875t-0.22705078125-1.97021484375t-0.0146484375-1.640625q0-1.2890625,0.05126953125-2.63671875t0.12451171875-2.666015625t0.205078125-2.578125t0.3076171875-2.34375q-0.5126953125,0.05859375-1.00341796875,0.1318359375t-1.00341796875,0.0732421875q-0.1171875,0-0.31494140625-0.0146484375t-0.37353515625-0.0732421875t-0.30029296875-0.1611328125t-0.12451171875-0.29296875z M70.302978515625,14.931640625q0-0.6884765625,0.16845703125-1.00341796875t0.4833984375-0.439453125t0.76171875-0.09521484375t1.04736328125,0.029296875q1.5234375,0,3.076171875,0.46875t2.7978515625,1.36962890625t2.0068359375,2.21923828125t0.76171875,3.0322265625q0,1.142578125-0.32958984375,2.16064453125t-0.93017578125,1.904296875t-1.40625,1.61865234375t-1.7724609375,1.2744140625q0.3955078125,0.3955078125,1.025390625,1.39892578125t1.2451171875,2.138671875t1.09130859375,2.20458984375t0.56396484375,1.611328125l-0.17578125,0.263671875q-0.3955078125,0.234375-0.9521484375,0.2490234375q-0.263671875,0-0.6884765625-0.06591796875t-0.5419921875-0.38818359375q-0.6005859375-1.6845703125-1.31103515625-3.4716796875t-1.75048828125-3.22265625l0-0.029296875q-0.3662109375,0.146484375-0.72509765625,0.28564453125t-0.72509765625,0.25634765625q0.1171875,1.6259765625,0.24169921875,3.20068359375t0.12451171875,3.18603515625q0,0.205078125-0.19775390625,0.32958984375t-0.44677734375,0.19775390625t-0.50537109375,0.1025390625t-0.41748046875,0.029296875q-0.146484375,0-0.41748046875-0.029296875t-0.52001953125-0.1025390625t-0.43212890625-0.21240234375t-0.18310546875-0.37353515625q0-1.6259765625-0.0732421875-3.24462890625t-0.1611328125-3.22998046875q-0.4541015625-0.29296875-0.4541015625-0.76171875q0-0.3662109375,0.3515625-0.498046875q-0.17578125-3.0908203125-0.40283203125-6.1669921875t-0.22705078125-6.1962890625z M72.954345703125,14.4775390625q0.205078125,3.1787109375,0.46142578125,6.2841796875t0.49072265625,6.2841796875q1.025390625-0.29296875,1.91162109375-1.01806640625t1.53076171875-1.63330078125t1.00341796875-1.9775390625t0.35888671875-2.1240234375q0-1.171875-0.46875-2.24853515625t-1.2451171875-1.88232421875q-0.791015625-0.8056640625-1.81640625-1.259765625q-0.908203125-0.3955078125-1.904296875-0.3955078125l-0.263671875,0z M84.40458984375,30.13671875q0-1.025390625,0.22705078125-2.4169921875t0.76904296875-2.63671875t1.42822265625-2.11669921875t2.23388671875-0.87158203125q1.259765625,0,1.8896484375,0.72509765625t0.6298828125,1.95556640625q0,0.8056640625-0.30029296875,1.76513671875t-0.85693359375,1.81640625t-1.318359375,1.42822265625t-1.69921875,0.5712890625l-0.380859375-0.029296875q0,0.3955078125,0.1171875,1.06201171875t0.34423828125,1.32568359375t0.5859375,1.1572265625t0.87158203125,0.498046875q0.7470703125,0,1.435546875-0.6005859375t1.3037109375-1.3330078125t1.142578125-1.3330078125t0.966796875-0.6005859375q0.234375,0,0.4833984375,0.0732421875t0.2783203125,0.41015625q0,0.205078125-0.10986328125,0.3369140625t-0.19775390625,0.29296875q-0.4541015625,0.7763671875-0.98876953125,1.4794921875t-1.20849609375,1.2744140625t-1.47216796875,0.90087890625t-1.76513671875,0.32958984375q-1.259765625,0-2.0947265625-0.44677734375t-1.34765625-1.201171875t-0.73974609375-1.7431640625t-0.22705078125-2.07275390625z M87.02666015625,29.0234375l0.41015625,0.3662109375q0.29296875,0.263671875,0.5859375,0.1171875t0.52734375-0.53466796875t0.43212890625-0.95947265625t0.3515625-1.171875t0.22705078125-1.171875t0.0732421875-0.9521484375l0-0.498046875t-0.0439453125-0.52734375t-0.15380859375-0.41748046875t-0.34423828125-0.21240234375q-0.0732421875-0.0146484375-0.1318359375-0.0146484375q-0.498046875,0-0.849609375,0.6298828125q-0.380859375,0.703125-0.615234375,1.70654296875t-0.3369140625,2.05810546875t-0.1318359375,1.58203125z M96.645849609375,29.5361328125q0-0.99609375,0.27099609375-1.9189453125t0.81298828125-1.64794921875t1.35498046875-1.1572265625t1.88232421875-0.43212890625q0.6591796875,0,1.45751953125,0.19775390625t1.50146484375,0.5859375t1.171875,0.98876953125t0.46875,1.376953125q0,0.3662109375-0.12451171875,0.556640625t-0.50537109375,0.1904296875l-0.1611328125-0.029296875q0.4248046875,1.142578125,0.732421875,2.34375t0.6005859375,2.40234375q0.1171875,0.234375,0.17578125,0.41748046875t0.05859375,0.35888671875q0,0.234375-0.1318359375,0.38818359375t-0.34423828125,0.22705078125t-0.439453125,0.1025390625t-0.40283203125,0.029296875q-0.6298828125,0-0.94482421875-0.2197265625t-0.4541015625-0.6005859375t-0.16845703125-0.85693359375t-0.1171875-0.95947265625q-0.17578125,0.5712890625-0.46142578125,1.11328125t-0.673828125,0.97412109375t-0.91552734375,0.6884765625t-1.1865234375,0.25634765625q-0.966796875,0-1.6259765625-0.556640625t-1.06201171875-1.36962890625t-0.5859375-1.73583984375t-0.18310546875-1.7138671875z M98.725927734375,29.3310546875q0,0.5419921875,0.0732421875,1.142578125t0.24169921875,1.1865234375t0.43212890625,1.10595703125t0.6591796875,0.91552734375q0.7177734375-0.7763671875,1.06201171875-1.8896484375t0.615234375-2.14599609375t0.615234375-1.7724609375t1.06201171875-0.73974609375q0.4541015625,0,0.76171875,0.1611328125q-0.146484375-0.3662109375-0.4833984375-0.71044921875t-0.75439453125-0.6298828125t-0.8642578125-0.46875t-0.84228515625-0.18310546875q-0.1171875,0-0.27099609375,0.03662109375t-0.24169921875,0.00732421875q-0.6005859375,0.17578125-0.98876953125,0.60791015625t-0.6298828125,1.01806640625t-0.34423828125,1.201171875t-0.1025390625,1.1572265625z M109.3412109375,29.3603515625q0-1.142578125,0.24169921875-2.07275390625t0.76904296875-1.57470703125t1.38427734375-1.00341796875t2.08740234375-0.35888671875q0.6884765625,0,1.40625,0.18310546875t1.23046875,0.68115234375q0-0.29296875,0.05859375-1.20849609375t0.146484375-2.13134765625t0.18310546875-2.548828125t0.16845703125-2.4755859375t0.1318359375-1.9189453125t0.087890625-0.87890625q0.146484375-0.4248046875,0.5419921875-0.50537109375t0.7470703125-0.08056640625q0.9228515625,0,1.13525390625,0.29296875t0.21240234375,1.171875q0,3.2080078125-0.28564453125,6.38671875t-0.28564453125,6.38671875q0,2.0654296875,0.08056640625,4.15283203125t0.57861328125,4.10888671875l0.1611328125,0.146484375l0.087890625,0.263671875l-0.2197265625,0.3369140625q-0.556640625,0.3515625-1.2890625,0.3515625l-0.05859375,0q-0.7470703125,0-1.376953125-0.3515625q-0.234375-0.146484375-0.38818359375-0.87158203125t-0.24169921875-1.5966796875t-0.1318359375-1.67724609375t-0.0732421875-1.142578125q-0.5126953125,1.171875-1.39892578125,2.01416015625t-2.23388671875,0.84228515625q-1.0546875,0-1.728515625-0.4541015625t-1.04736328125-1.1572265625t-0.52734375-1.57470703125t-0.15380859375-1.73583984375z M111.113671875,29.4482421875q0,0.3369140625,0.08056640625,0.99609375t0.25634765625,1.318359375t0.49072265625,1.171875t0.82763671875,0.5126953125q0.6884765625-0.3369140625,1.2451171875-1.12060546875t0.95947265625-1.728515625t0.6298828125-1.8896484375t0.22705078125-1.63330078125q0-0.8642578125-0.6298828125-1.435546875t-1.5087890625-0.5712890625q-0.263671875,0-0.53466796875,0.1025390625t-0.50537109375,0.234375q-0.5419921875,0.5126953125-0.84228515625,0.93017578125t-0.4541015625,0.8642578125t-0.19775390625,0.98876953125t-0.0439453125,1.259765625z M123.20844726563,25.7568359375q0-0.6005859375,0.3515625-1.03271484375t0.85693359375-0.703125t1.10595703125-0.40283203125t1.11328125-0.1318359375q0.3955078125,0,1.0546875,0.1171875t1.2890625,0.3515625t1.09130859375,0.615234375t0.46142578125,0.8935546875q0,0.234375-0.17578125,0.41748046875t-0.3662109375,0.18310546875q-0.3955078125,0-0.7177734375-0.25634765625t-0.66650390625-0.5419921875t-0.75439453125-0.5419921875t-0.9228515625-0.25634765625t-0.93017578125,0.32958984375t-0.41748046875,0.87158203125q0,0.8935546875,0.6298828125,1.75048828125t1.38427734375,1.8017578125t1.38427734375,1.98486328125t0.6298828125,2.2998046875q0,0.5419921875-0.22705078125,0.91552734375t-0.6005859375,0.60791015625t-0.84228515625,0.35888671875t-0.908203125,0.12451171875q-0.4833984375,0-1.1279296875-0.22705078125t-1.2158203125-0.6005859375t-0.95947265625-0.87158203125t-0.38818359375-1.0400390625q0-0.263671875,0.37353515625-0.3369140625t0.54931640625-0.0732421875q0.087890625,0,0.27099609375,0.05859375t0.35888671875,0.1318359375t0.31494140625,0.1611328125t0.10986328125,0.1904296875q0.146484375,0.17578125,0.44677734375,0.52001953125t0.6005859375,0.556640625t0.52734375,0.15380859375t0.22705078125-0.6591796875q0-1.142578125-0.615234375-2.10205078125t-1.34033203125-1.875t-1.34033203125-1.81640625t-0.615234375-1.92626953125z"/><path fill="#" d=""/></svg>
